# xmcd CD database file
# Copyright (C) 1998 Ti Kan
# 
# Track frame offsets:
#     182
#     14055
#     31275
#     46622
#     63352
#     84702
#     101507
#     120335
#     136642
#     152882
#     170787
# 
# Disc length: 2406 seconds
# 
# Revision: 1
# Processed by: cddbd v1.4b41PL1 Copyright (c) Steve Scherf et al.
# Submitted via: DiscPlay 4.0.4
# 
DISCID=8609640b
DTITLE=Underground Outlaws - Underground Outlaws
DYEAR=1900
DGENRE=
TTITLE0=I Miss the Old You
TTITLE1=Put a Little Distance
TTITLE2=Tonky honkin'
TTITLE3=Daddy's Little Girl
TTITLE4=It'll Be All Right
TTITLE5=Leave the Past Behind
TTITLE6=Backseat Driver
TTITLE7=Silver Lining
TTITLE8=(You are) My Best Friend
TTITLE9=Restless
TTITLE10=I Drink to Forget
EXTD=
EXTT0=
EXTT1=
EXTT2=
EXTT3=
EXTT4=
EXTT5=
EXTT6=
EXTT7=
EXTT8=
EXTT9=
EXTT10=
PLAYORDER=
